<mxfile host="app.diagrams.net" agent="Mozilla/5.0 (X11; Ubuntu; Linux x86_64; rv:136.0) Gecko/20100101 Firefox/136.0" version="26.1.1">
  <diagram name="Page-1" id="SDQG6RZ09ocbM72ViDRD">
    <mxGraphModel dx="779" dy="438" grid="1" gridSize="2" guides="1" tooltips="1" connect="1" arrows="1" fold="1" page="1" pageScale="1" pageWidth="850" pageHeight="1100" math="0" shadow="0">
      <root>
        <mxCell id="0" />
        <mxCell id="1" parent="0" />
        <mxCell id="Yv752lXVJfeXYkFJ59wb-1" value="" style="rounded=0;whiteSpace=wrap;html=1;fillColor=none;" vertex="1" parent="1">
          <mxGeometry x="306" y="20" width="215" height="300" as="geometry" />
        </mxCell>
        <mxCell id="Yv752lXVJfeXYkFJ59wb-2" value="" style="rounded=0;whiteSpace=wrap;html=1;fillColor=none;" vertex="1" parent="1">
          <mxGeometry x="55" y="100" width="160" height="220" as="geometry" />
        </mxCell>
        <mxCell id="Yv752lXVJfeXYkFJ59wb-3" style="edgeStyle=orthogonalEdgeStyle;rounded=0;orthogonalLoop=1;jettySize=auto;html=1;entryX=0;entryY=0.5;entryDx=0;entryDy=0;strokeColor=#000000;strokeWidth=3;" edge="1" parent="1" source="Yv752lXVJfeXYkFJ59wb-4" target="Yv752lXVJfeXYkFJ59wb-11">
          <mxGeometry relative="1" as="geometry" />
        </mxCell>
        <mxCell id="Yv752lXVJfeXYkFJ59wb-4" value="" style="shape=trapezoid;perimeter=trapezoidPerimeter;whiteSpace=wrap;html=1;fixedSize=1;rotation=90;fillColor=none;" vertex="1" parent="1">
          <mxGeometry x="115" y="225" width="120" height="30" as="geometry" />
        </mxCell>
        <mxCell id="Yv752lXVJfeXYkFJ59wb-5" value="&lt;div&gt;A&lt;/div&gt;&lt;div&gt;D&lt;/div&gt;&lt;div&gt;D&lt;br&gt;&lt;/div&gt;" style="text;html=1;align=center;verticalAlign=middle;whiteSpace=wrap;rounded=0;" vertex="1" parent="1">
          <mxGeometry x="167.5" y="225" width="15" height="30" as="geometry" />
        </mxCell>
        <mxCell id="Yv752lXVJfeXYkFJ59wb-6" style="edgeStyle=orthogonalEdgeStyle;rounded=0;orthogonalLoop=1;jettySize=auto;html=1;exitX=1;exitY=0.5;exitDx=0;exitDy=0;entryX=0.75;entryY=1;entryDx=0;entryDy=0;strokeWidth=3;" edge="1" parent="1" source="Yv752lXVJfeXYkFJ59wb-7" target="Yv752lXVJfeXYkFJ59wb-33">
          <mxGeometry relative="1" as="geometry" />
        </mxCell>
        <mxCell id="Yv752lXVJfeXYkFJ59wb-7" value="&amp;gt;&amp;gt;" style="ellipse;whiteSpace=wrap;html=1;aspect=fixed;fillColor=none;" vertex="1" parent="1">
          <mxGeometry x="335" y="225" width="30" height="30" as="geometry" />
        </mxCell>
        <mxCell id="Yv752lXVJfeXYkFJ59wb-8" style="edgeStyle=orthogonalEdgeStyle;rounded=0;orthogonalLoop=1;jettySize=auto;html=1;exitX=1;exitY=0.5;exitDx=0;exitDy=0;entryX=0.75;entryY=1;entryDx=0;entryDy=0;strokeColor=#000000;strokeWidth=3;" edge="1" parent="1" source="Yv752lXVJfeXYkFJ59wb-11" target="Yv752lXVJfeXYkFJ59wb-4">
          <mxGeometry relative="1" as="geometry">
            <Array as="points">
              <mxPoint x="315" y="240" />
              <mxPoint x="315" y="305" />
              <mxPoint x="140" y="305" />
              <mxPoint x="140" y="270" />
            </Array>
          </mxGeometry>
        </mxCell>
        <mxCell id="Yv752lXVJfeXYkFJ59wb-9" style="edgeStyle=orthogonalEdgeStyle;rounded=0;orthogonalLoop=1;jettySize=auto;html=1;exitX=1;exitY=0.5;exitDx=0;exitDy=0;entryX=0;entryY=0.5;entryDx=0;entryDy=0;strokeWidth=3;" edge="1" parent="1" source="Yv752lXVJfeXYkFJ59wb-11" target="Yv752lXVJfeXYkFJ59wb-7">
          <mxGeometry relative="1" as="geometry" />
        </mxCell>
        <mxCell id="Yv752lXVJfeXYkFJ59wb-10" style="edgeStyle=orthogonalEdgeStyle;rounded=0;orthogonalLoop=1;jettySize=auto;html=1;exitX=1;exitY=0.5;exitDx=0;exitDy=0;entryX=0.25;entryY=1;entryDx=0;entryDy=0;strokeWidth=3;" edge="1" parent="1" source="Yv752lXVJfeXYkFJ59wb-11" target="Yv752lXVJfeXYkFJ59wb-33">
          <mxGeometry relative="1" as="geometry">
            <Array as="points">
              <mxPoint x="315" y="240" />
              <mxPoint x="315" y="196" />
            </Array>
          </mxGeometry>
        </mxCell>
        <mxCell id="Yv752lXVJfeXYkFJ59wb-11" value="V_mem" style="rounded=0;whiteSpace=wrap;html=1;fillColor=#CCCCCC;" vertex="1" parent="1">
          <mxGeometry x="225" y="220" width="78" height="40" as="geometry" />
        </mxCell>
        <mxCell id="Yv752lXVJfeXYkFJ59wb-12" value="" style="endArrow=classic;html=1;rounded=0;entryX=0.25;entryY=1;entryDx=0;entryDy=0;fillColor=#d5e8d4;strokeColor=#666666;strokeWidth=3;" edge="1" parent="1" target="Yv752lXVJfeXYkFJ59wb-4">
          <mxGeometry width="50" height="50" relative="1" as="geometry">
            <mxPoint x="75" y="210" as="sourcePoint" />
            <mxPoint x="105" y="195" as="targetPoint" />
          </mxGeometry>
        </mxCell>
        <mxCell id="Yv752lXVJfeXYkFJ59wb-13" value="i_weight" style="edgeLabel;html=1;align=center;verticalAlign=middle;resizable=0;points=[];labelBackgroundColor=none;" vertex="1" connectable="0" parent="Yv752lXVJfeXYkFJ59wb-12">
          <mxGeometry x="-0.7412" y="-2" relative="1" as="geometry">
            <mxPoint x="-1" y="-17" as="offset" />
          </mxGeometry>
        </mxCell>
        <mxCell id="Yv752lXVJfeXYkFJ59wb-14" value="" style="endArrow=classic;html=1;rounded=0;strokeColor=#666666;strokeWidth=3;" edge="1" parent="1">
          <mxGeometry width="50" height="50" relative="1" as="geometry">
            <mxPoint x="174.8" y="130" as="sourcePoint" />
            <mxPoint x="174.8" y="190" as="targetPoint" />
          </mxGeometry>
        </mxCell>
        <mxCell id="Yv752lXVJfeXYkFJ59wb-15" value="i_spike_flag" style="edgeLabel;html=1;align=center;verticalAlign=middle;resizable=0;points=[];labelBackgroundColor=none;" vertex="1" connectable="0" parent="Yv752lXVJfeXYkFJ59wb-14">
          <mxGeometry x="-0.6267" y="-1" relative="1" as="geometry">
            <mxPoint x="1" y="-16" as="offset" />
          </mxGeometry>
        </mxCell>
        <mxCell id="Yv752lXVJfeXYkFJ59wb-16" style="edgeStyle=orthogonalEdgeStyle;rounded=0;orthogonalLoop=1;jettySize=auto;html=1;exitX=1;exitY=0.5;exitDx=0;exitDy=0;entryX=0.5;entryY=1;entryDx=0;entryDy=0;strokeColor=#000000;strokeWidth=3;" edge="1" parent="1" source="Yv752lXVJfeXYkFJ59wb-17" target="Yv752lXVJfeXYkFJ59wb-7">
          <mxGeometry relative="1" as="geometry" />
        </mxCell>
        <mxCell id="Yv752lXVJfeXYkFJ59wb-17" value="s" style="rounded=0;whiteSpace=wrap;html=1;fillColor=#CCCCCC;" vertex="1" parent="1">
          <mxGeometry x="318" y="270" width="21.25" height="20" as="geometry" />
        </mxCell>
        <mxCell id="Yv752lXVJfeXYkFJ59wb-18" style="edgeStyle=orthogonalEdgeStyle;rounded=0;orthogonalLoop=1;jettySize=auto;html=1;exitX=1;exitY=0.5;exitDx=0;exitDy=0;entryX=0.25;entryY=1;entryDx=0;entryDy=0;strokeWidth=3;" edge="1" parent="1" source="Yv752lXVJfeXYkFJ59wb-20" target="Yv752lXVJfeXYkFJ59wb-23">
          <mxGeometry relative="1" as="geometry" />
        </mxCell>
        <mxCell id="Yv752lXVJfeXYkFJ59wb-20" value="V_threshold" style="rounded=0;whiteSpace=wrap;html=1;fillColor=#CCCCCC;" vertex="1" parent="1">
          <mxGeometry x="309" y="147" width="70" height="40" as="geometry" />
        </mxCell>
        <mxCell id="Yv752lXVJfeXYkFJ59wb-21" style="edgeStyle=orthogonalEdgeStyle;rounded=0;orthogonalLoop=1;jettySize=auto;html=1;exitX=0.5;exitY=0;exitDx=0;exitDy=0;entryX=0;entryY=0.5;entryDx=0;entryDy=0;strokeColor=#666666;strokeWidth=3;" edge="1" parent="1" source="Yv752lXVJfeXYkFJ59wb-23" target="Yv752lXVJfeXYkFJ59wb-26">
          <mxGeometry relative="1" as="geometry">
            <Array as="points">
              <mxPoint x="483" y="193" />
              <mxPoint x="483" y="135" />
              <mxPoint x="356" y="135" />
            </Array>
          </mxGeometry>
        </mxCell>
        <mxCell id="Yv752lXVJfeXYkFJ59wb-22" style="edgeStyle=orthogonalEdgeStyle;rounded=0;orthogonalLoop=1;jettySize=auto;html=1;exitX=0.5;exitY=0;exitDx=0;exitDy=0;strokeWidth=3;strokeColor=#666666;" edge="1" parent="1" source="Yv752lXVJfeXYkFJ59wb-23">
          <mxGeometry relative="1" as="geometry">
            <mxPoint x="507" y="192.66666666666669" as="targetPoint" />
          </mxGeometry>
        </mxCell>
        <mxCell id="Yv752lXVJfeXYkFJ59wb-23" value="" style="shape=trapezoid;perimeter=trapezoidPerimeter;whiteSpace=wrap;html=1;fixedSize=1;rotation=90;fillColor=none;" vertex="1" parent="1">
          <mxGeometry x="398.75" y="180" width="102.5" height="25" as="geometry" />
        </mxCell>
        <mxCell id="Yv752lXVJfeXYkFJ59wb-24" value="&amp;gt;" style="text;html=1;align=center;verticalAlign=middle;whiteSpace=wrap;rounded=0;" vertex="1" parent="1">
          <mxGeometry x="444" y="177.5" width="12" height="30" as="geometry" />
        </mxCell>
        <mxCell id="Yv752lXVJfeXYkFJ59wb-25" style="edgeStyle=orthogonalEdgeStyle;rounded=0;orthogonalLoop=1;jettySize=auto;html=1;exitX=0.5;exitY=0;exitDx=0;exitDy=0;entryX=0.5;entryY=0;entryDx=0;entryDy=0;strokeColor=#000000;strokeWidth=3;" edge="1" parent="1" source="Yv752lXVJfeXYkFJ59wb-26" target="Yv752lXVJfeXYkFJ59wb-11">
          <mxGeometry relative="1" as="geometry" />
        </mxCell>
        <mxCell id="Yv752lXVJfeXYkFJ59wb-26" value="" style="shape=trapezoid;perimeter=trapezoidPerimeter;whiteSpace=wrap;html=1;fixedSize=1;rotation=-90;fillColor=none;" vertex="1" parent="1">
          <mxGeometry x="315" y="72" width="82.5" height="25" as="geometry" />
        </mxCell>
        <mxCell id="Yv752lXVJfeXYkFJ59wb-27" value="&lt;div&gt;M&lt;/div&gt;&lt;div&gt;U&lt;/div&gt;&lt;div&gt;X&lt;/div&gt;" style="text;html=1;align=center;verticalAlign=middle;whiteSpace=wrap;rounded=0;" vertex="1" parent="1">
          <mxGeometry x="349.38" y="70" width="13.75" height="30" as="geometry" />
        </mxCell>
        <mxCell id="Yv752lXVJfeXYkFJ59wb-28" value="o_spike_flag" style="text;html=1;align=center;verticalAlign=middle;whiteSpace=wrap;rounded=0;" vertex="1" parent="1">
          <mxGeometry x="468" y="190" width="60" height="30" as="geometry" />
        </mxCell>
        <mxCell id="Yv752lXVJfeXYkFJ59wb-29" value="Weight update" style="text;html=1;align=center;verticalAlign=middle;whiteSpace=wrap;rounded=0;" vertex="1" parent="1">
          <mxGeometry x="55" y="105" width="60" height="30" as="geometry" />
        </mxCell>
        <mxCell id="Yv752lXVJfeXYkFJ59wb-30" value="membrane update" style="text;html=1;align=center;verticalAlign=middle;whiteSpace=wrap;rounded=0;" vertex="1" parent="1">
          <mxGeometry x="309" y="20" width="60" height="30" as="geometry" />
        </mxCell>
        <mxCell id="Yv752lXVJfeXYkFJ59wb-31" style="edgeStyle=orthogonalEdgeStyle;rounded=0;orthogonalLoop=1;jettySize=auto;html=1;entryX=0.75;entryY=1;entryDx=0;entryDy=0;strokeWidth=3;" edge="1" parent="1" source="Yv752lXVJfeXYkFJ59wb-33" target="Yv752lXVJfeXYkFJ59wb-23">
          <mxGeometry relative="1" as="geometry" />
        </mxCell>
        <mxCell id="Yv752lXVJfeXYkFJ59wb-32" style="edgeStyle=orthogonalEdgeStyle;rounded=0;orthogonalLoop=1;jettySize=auto;html=1;exitX=0.5;exitY=0;exitDx=0;exitDy=0;entryX=0.25;entryY=1;entryDx=0;entryDy=0;strokeWidth=3;" edge="1" parent="1" source="Yv752lXVJfeXYkFJ59wb-33" target="Yv752lXVJfeXYkFJ59wb-26">
          <mxGeometry relative="1" as="geometry">
            <Array as="points">
              <mxPoint x="417" y="217" />
              <mxPoint x="417" y="105" />
            </Array>
          </mxGeometry>
        </mxCell>
        <mxCell id="Yv752lXVJfeXYkFJ59wb-33" value="" style="shape=trapezoid;perimeter=trapezoidPerimeter;whiteSpace=wrap;html=1;fixedSize=1;rotation=90;fillColor=none;" vertex="1" parent="1">
          <mxGeometry x="356.5" y="206.19" width="87.25" height="22.38" as="geometry" />
        </mxCell>
        <mxCell id="Yv752lXVJfeXYkFJ59wb-34" value="&lt;div&gt;S&lt;/div&gt;&lt;div&gt;U&lt;/div&gt;&lt;div&gt;B&lt;/div&gt;" style="text;html=1;align=center;verticalAlign=middle;whiteSpace=wrap;rounded=0;" vertex="1" parent="1">
          <mxGeometry x="392.63" y="202.38" width="15" height="30" as="geometry" />
        </mxCell>
        <mxCell id="Yv752lXVJfeXYkFJ59wb-37" style="edgeStyle=orthogonalEdgeStyle;rounded=0;orthogonalLoop=1;jettySize=auto;html=1;exitX=0;exitY=0.5;exitDx=0;exitDy=0;entryX=0.75;entryY=1;entryDx=0;entryDy=0;strokeWidth=3;" edge="1" parent="1" source="Yv752lXVJfeXYkFJ59wb-36" target="Yv752lXVJfeXYkFJ59wb-26">
          <mxGeometry relative="1" as="geometry" />
        </mxCell>
        <mxCell id="Yv752lXVJfeXYkFJ59wb-36" value="0" style="rounded=0;whiteSpace=wrap;html=1;fillColor=#CCCCCC;" vertex="1" parent="1">
          <mxGeometry x="414" y="54" width="21.25" height="20" as="geometry" />
        </mxCell>
      </root>
    </mxGraphModel>
  </diagram>
</mxfile>
